# xmcd CD database file
#
# Track frame offsets:
#	150
#	35353
#	63218
#	119294
#	150468
#	188766
#	208252
#	247762
#
# Disc length: 3811 seconds
#
# Revision: 0
# Processed by: cddbd v1.5.2PL0 Copyright (c) Steve Scherf et al.
# Submitted via: CDex 1.51
#
DISCID=600ee108
DTITLE=Sambodhi Prem - Cello Circles
DYEAR=2008
DGENRE=New Age
TTITLE0=A Wave that Holds
TTITLE1=Leaving Space
TTITLE2=Circles in the Sky
TTITLE3=Four Winds
TTITLE4=Dancing Fields
TTITLE5=This Moment
TTITLE6=Friendliness
TTITLE7=Spring Water
EXTD=YEAR: 2008
EXTT0=
EXTT1=
EXTT2=
EXTT3=
EXTT4=
EXTT5=
EXTT6=
EXTT7=
PLAYORDER=
